<?xml version="1.0" encoding="iso-8859-1"?>
<!-- Generator: Adobe Illustrator 19.0.0, SVG Export Plug-In . SVG Version: 6.00 Build 0)  -->
<svg version="1.1" id="Capa_1" xmlns="http://www.w3.org/2000/svg" xmlns:xlink="http://www.w3.org/1999/xlink" x="0px" y="0px"
	 viewBox="0 0 512 512" style="enable-background:new 0 0 512 512;" xml:space="preserve">
<path style="fill:#00A085;" d="M512,407H206l50,105c30.209,0,57.004-18.013,68.753-45H512V407z"/>
<path style="fill:#5AC779;" d="M0,407v60h187.247c11.749,26.987,38.544,45,68.753,45V407H0z"/>
<path style="fill:#BCDEF7;" d="M316,0c-33,0-60,27-60,60l-50,188.5L256,452h15c0-7.008,1.612-13.646,4.482-19.566L512,407V0H316z"/>
<path style="fill:#F7EDBC;" d="M196,0H0v407l198,10l43,35l15-10V60C256,27,229,0,196,0z"/>
<path style="fill:#9ACEF3;" d="M316,407c-24.508,0-46.306,11.817-60,30.052l-10,24.947L256,482h15c0-24.813,20.187-45,45-45h196v-30
	H316z"/>
<path style="fill:#BCDEF7;" d="M196,407H0v30h196c24.813,0,45,20.187,45,45h15v-44.948C242.306,418.817,220.508,407,196,407z"/>
<rect x="301" y="30" style="fill:#FFFFFF;" width="181" height="347"/>
<rect x="331" y="60" style="fill:#FF7452;" width="121" height="75.67"/>
<rect x="331" y="165.67" style="fill:#E24642;" width="121" height="75.67"/>
<rect x="331" y="271.33" style="fill:#5AC779;" width="45.5" height="75.67"/>
<rect x="406.5" y="271.33" style="fill:#FB9D46;" width="45.5" height="75.67"/>
<rect x="30" y="30" style="fill:#FFFFFF;" width="181" height="347"/>
<rect x="60" y="165.67" style="fill:#FDBA4C;" width="121" height="181.33"/>
<rect x="135.5" y="60" style="fill:#458FDE;" width="45.5" height="75.67"/>
<rect x="60" y="60" style="fill:#85DC79;" width="45.5" height="75.67"/>
<g>
</g>
<g>
</g>
<g>
</g>
<g>
</g>
<g>
</g>
<g>
</g>
<g>
</g>
<g>
</g>
<g>
</g>
<g>
</g>
<g>
</g>
<g>
</g>
<g>
</g>
<g>
</g>
<g>
</g>
</svg>
