<?xml version="1.0" encoding="iso-8859-1"?>
<!-- Generator: Adobe Illustrator 19.0.0, SVG Export Plug-In . SVG Version: 6.00 Build 0)  -->
<svg version="1.1" id="Capa_1" xmlns="http://www.w3.org/2000/svg" xmlns:xlink="http://www.w3.org/1999/xlink" x="0px" y="0px"
	 viewBox="0 0 512 512" style="enable-background:new 0 0 512 512;" xml:space="preserve">
<path style="fill:#866D67;" d="M135,422H75c-8.401,0-15,6.599-15,15v60c0,8.401,6.599,15,15,15h60c8.401,0,15-6.599,15-15v-60
	C150,428.599,143.401,422,135,422z"/>
<path style="fill:#725D57;" d="M437,422h-60c-8.401,0-15,6.599-15,15v60c0,8.401,6.599,15,15,15h60c8.401,0,15-6.599,15-15v-60
	C452,428.599,445.401,422,437,422z"/>
<path style="fill:#53433F;" d="M467,0H45C20.099,0,0,20.099,0,45v76l30,15v30L0,181v90l30,15v30L0,331v76c0,24.901,20.099,45,45,45
	h422c24.901,0,45-20.099,45-45V45C512,20.099,491.901,0,467,0z"/>
<path style="fill:#3E322E;" d="M467,0H256v452h211c24.901,0,45-20.099,45-45V45C512,20.099,491.901,0,467,0z"/>
<path style="fill:#FF4B00;" d="M452,75v302c0,8.401-6.599,15-15,15H75c-8.401,0-15-6.599-15-15V75c0-8.401,6.599-15,15-15h362
	C445.401,60,452,66.599,452,75z"/>
<path style="fill:#E61E14;" d="M452,75v302c0,8.401-6.599,15-15,15H256V60h181C445.401,60,452,66.599,452,75z"/>
<path style="fill:#FFEEE6;" d="M293.2,151c-16.5,0-28.799,7.5-37.2,17.1c-8.401-9.6-20.7-17.1-37.2-17.1
	c-29.399,0-53.2,24.3-53.2,55.499c0,32.401,26.199,54.001,61.3,83.401c5.999,5.099,12.599,10.499,19.199,16.5
	c3.001,2.401,6.301,3.6,9.901,3.6c3.6,0,6.899-1.199,9.901-3.6c6.599-6,13.2-11.4,19.199-16.5c10.501-9,20.101-16.8,28.2-24.6
	c16.501-15.601,32.1-33.9,32.1-58.801C345.399,175.3,322.599,151,293.2,151z"/>
<path style="fill:#EFE2DD;" d="M345.399,206.499c0,24.901-15.599,43.2-32.1,58.801c-8.099,7.8-17.699,15.601-28.2,24.6
	c-5.999,5.099-12.599,10.499-19.199,16.5c-3.001,2.4-6.3,3.6-9.9,3.6V168.1c8.401-9.6,20.7-17.1,37.2-17.1
	C322.599,151,345.399,175.3,345.399,206.499z"/>
<g>
	<path style="fill:#E1D3CE;" d="M75,181H0v-60h75c8.284,0,15,6.716,15,15v30C90,174.284,83.284,181,75,181z"/>
	<path style="fill:#E1D3CE;" d="M75,331H0v-60h75c8.284,0,15,6.716,15,15v30C90,324.284,83.284,331,75,331z"/>
</g>
<g>
</g>
<g>
</g>
<g>
</g>
<g>
</g>
<g>
</g>
<g>
</g>
<g>
</g>
<g>
</g>
<g>
</g>
<g>
</g>
<g>
</g>
<g>
</g>
<g>
</g>
<g>
</g>
<g>
</g>
</svg>
